<?xml version="1.0" encoding="utf-8"?>
<!-- Generator: Adobe Illustrator 27.5.0, SVG Export Plug-In . SVG Version: 6.00 Build 0)  -->
<svg version="1.1" xmlns="http://www.w3.org/2000/svg" xmlns:xlink="http://www.w3.org/1999/xlink" x="0px" y="0px"
	 viewBox="0 0 640 480" style="enable-background:new 0 0 640 480;" xml:space="preserve">
<style type="text/css">
	.st0{fill:#FFF000;stroke:#000000;stroke-width:3;stroke-miterlimit:10;}
	.st1{fill:none;stroke:#000000;stroke-width:3;stroke-miterlimit:10;}
	.st2{fill:#FFFFFF;stroke:#000000;stroke-miterlimit:10;}
	.st3{stroke:#000000;stroke-miterlimit:10;}
	.st4{fill:#FF7BAC;stroke:#000000;stroke-miterlimit:10;}
</style>
<g id="Layer_1">
</g>
<g id="Can_Body">
</g>
<g id="Face">
	<g>
		<g>
			<path class="st0" d="M381.37,352.83l0,1.99c0,6.45-25.74,11.67-57.5,11.67s-57.5-5.23-57.5-11.67v-1.76"/>
			<path class="st0" d="M393.07,155.15l-0.7,188.2c0,3.5-4.04,6.75-11,9.48c-12.26,4.81-33.56,7.99-57.8,7.99
				c-37.99,0-68.8-7.82-68.8-17.47l-0.7-186.65"/>
			<g>
				<path class="st0" d="M270.93,127.5l-16.85,29.2c0,11.05,31.12,20,69.5,20s69.35-9.15,69.35-20.2l-16-29"/>
				<path class="st1" d="M376.93,128.5c0,8.56-23.73,15-53,15s-53-6.44-53-15"/>
			</g>
			<ellipse class="st0" cx="323.93" cy="129" rx="53" ry="15.5"/>
		</g>
		<g id="Left_Eye">
			<ellipse class="st2" cx="272.43" cy="246.5" rx="25.5" ry="30"/>
			<ellipse class="st3" cx="278.43" cy="255.5" rx="11.5" ry="19"/>
		</g>
		<g id="Right_Eye">
			<ellipse class="st2" cx="340.43" cy="254.5" rx="25.5" ry="30"/>
			<ellipse class="st3" cx="346.43" cy="263.5" rx="11.5" ry="19"/>
		</g>
		<path id="Mouth" class="st4" d="M276.93,290.5c-0.61,5.49,10.08,11.29,24.9,12.94c14.82,1.65,26.49-1.45,27.1-6.94h1l-54-6"/>
	</g>
</g>
</svg>
